<svg xmlns="http://www.w3.org/2000/svg" version="1.1" xmlns:xlink="http://www.w3.org/1999/xlink" preserveAspectRatio="none" x="0px" y="0px" width="100%" height="100%" viewBox="0 0 400 400">
    <circle fill="rgb(255, 255, 255)" fill-opacity="1" stroke="rgb(0, 0, 0)" stroke-width="3" cx="96.2" cy="342.5" r="24.6"></circle>
    <circle fill="rgb(255, 255, 255)" fill-opacity="1" stroke="rgb(0, 0, 0)" stroke-width="3" cx="58.1" cy="376.8" r="13.5"></circle>
    <circle fill="rgb(255, 255, 255)" fill-opacity="1" stroke="rgb(0, 0, 0)" stroke-width="3" cx="21.7" cy="390.3" r="9.7"></circle>
    <path fill="rgb(255, 255, 255)" fill-opacity="1" stroke="rgb(0, 0, 0)" stroke-width="3" d="M401.3,228.4c0-14.3-8.9-26.7-22-33c-0.6-32.4-30.3-58.5-67-58.5c-0.8,0-1.5,0-2.3,0.1
	c-2.5-5.4-7-10.3-12.9-14.4c-6.3-13.6-21.3-23.2-38.8-23.2c-13,0-24.7,5.3-32.4,13.6c-0.3,0.1-0.6,0.2-1,0.3
	c-4.3-15.8-18.8-27.4-35.9-27.4c-6,0-11.6,1.4-16.6,3.9c-6-7.8-15.5-12.9-26.2-12.9c-12.9,0-24,7.4-29.5,18.2
	c-6.6-2.7-13.7-4.2-21.3-4.2c-24.3,0-45.1,15.5-52.9,37.1C17,136.4-1.3,158.2-1.3,183.8c0,14.9,6.2,28.5,16.4,38.9
	c-1.2,3.5-1.9,7.2-1.9,11.1c0,20.7,18.8,37.5,42,37.5c6.1,0,11.9-1.2,17.2-3.3c3.3,25.1,26.1,44.5,53.7,44.5c10,0,19.4-2.6,27.4-7
	c8.2,10.6,21,17.5,35.4,17.5c12.2,0,23.3-4.9,31.3-12.9c4.2,1.5,8.7,2.4,13.4,2.4c7.5,0,14.5-2.1,20.4-5.7
	c9.3,8.3,22.1,13.4,36.3,13.4c19.5,0,36.5-9.8,45.3-24.2c18.7-3.6,33.7-16.4,39-32.9C390.3,257.7,401.3,244.2,401.3,228.4z"></path>
</svg>