<svg xmlns="http://www.w3.org/2000/svg" version="1.1" xmlns:xlink="http://www.w3.org/1999/xlink" preserveAspectRatio="none" x="0px" y="0px" width="100%" height="100%" viewBox="0 0 400 400">
    <circle fill="rgb(255, 255, 255)" fill-opacity="1" stroke="rgb(0, 0, 0)" stroke-width="3" cx="356" cy="355" r="13.5"></circle>
    <circle fill="rgb(255, 255, 255)" fill-opacity="1" stroke="rgb(0, 0, 0)" stroke-width="3" cx="379.2" cy="380.5" r="9.7"></circle>
    <path fill="rgb(255, 255, 255)" fill-opacity="1" stroke="rgb(0, 0, 0)" stroke-width="3" d="M379.2,195.4c-0.1-6.3-1.3-12.3-3.5-17.9c8.3-6.3,13.7-16.4,13.7-27.7c0-19.2-15.6-34.8-34.8-34.8
	c-4.6,0-9.1,0.9-13.1,2.6c-5.9-4.7-13.5-7.6-21.6-7.6c-9.5,0-18,3.8-24.3,9.9c-6.9-12.2-21.1-20.6-37.5-20.6
	c-13,0-24.7,5.3-32.4,13.6c-0.3,0.1-0.6,0.2-1,0.3c-4.3-15.8-18.8-27.4-35.9-27.4c-6,0-11.6,1.4-16.6,3.9
	c-6-7.8-15.5-12.9-26.2-12.9c-12.9,0-24,7.4-29.5,18.2c-6.6-2.7-13.7-4.2-21.3-4.2c-24.3,0-45.1,15.5-52.9,37.1
	C17,136.4-1.3,158.2-1.3,183.8c0,14.9,6.2,28.5,16.4,38.9c-1.2,3.5-1.9,7.2-1.9,11.1c0,20.7,18.8,37.5,42,37.5
	c6.1,0,11.9-1.2,17.2-3.3c3.3,25.1,26.1,44.5,53.7,44.5c10,0,19.4-2.6,27.4-7c8.2,10.6,21,17.5,35.4,17.5c12.2,0,23.3-4.9,31.3-12.9
	c4.2,1.5,8.7,2.4,13.4,2.4c7.5,0,14.5-2.1,20.4-5.7c9.3,8.3,22.1,13.4,36.3,13.4c3.2,0,6.4-0.3,9.4-0.8c-0.2,1.2-0.3,2.3-0.3,3.6
	c0,13.6,11,24.6,24.6,24.6c13.6,0,24.6-11,24.6-24.6c0-10.5-6.5-19.4-15.8-22.9c1-1.3,1.9-2.6,2.8-4c18.7-3.6,33.7-16.4,39-32.9
	c15.5-5.5,26.5-19,26.5-34.9C401.3,214.1,392.3,201.7,379.2,195.4z"></path>
</svg>